<svg width="21" height="16" viewBox="0 0 21 16" fill="none" xmlns="http://www.w3.org/2000/svg">
<path d="M8.95 11.5C9.35 11.9 9.86667 12.0958 10.5 12.0875C11.1333 12.0792 11.6 11.85 11.9 11.4L17.5 3L9.1 8.6C8.65 8.9 8.4125 9.35833 8.3875 9.975C8.3625 10.5917 8.55 11.1 8.95 11.5ZM10.5 0C11.4833 0 12.4292 0.1375 13.3375 0.4125C14.2458 0.6875 15.1 1.1 15.9 1.65L14 2.85C13.45 2.56667 12.8792 2.35417 12.2875 2.2125C11.6958 2.07083 11.1 2 10.5 2C8.28333 2 6.39583 2.77917 4.8375 4.3375C3.27917 5.89583 2.5 7.78333 2.5 10C2.5 10.7 2.59583 11.3917 2.7875 12.075C2.97917 12.7583 3.25 13.4 3.6 14H17.4C17.7833 13.3667 18.0625 12.7083 18.2375 12.025C18.4125 11.3417 18.5 10.6333 18.5 9.9C18.5 9.3 18.4292 8.71667 18.2875 8.15C18.1458 7.58333 17.9333 7.03333 17.65 6.5L18.85 4.6C19.35 5.38333 19.7458 6.21667 20.0375 7.1C20.3292 7.98333 20.4833 8.9 20.5 9.85C20.5167 10.8 20.4083 11.7083 20.175 12.575C19.9417 13.4417 19.6 14.2667 19.15 15.05C18.9667 15.35 18.7167 15.5833 18.4 15.75C18.0833 15.9167 17.75 16 17.4 16H3.6C3.25 16 2.91667 15.9167 2.6 15.75C2.28333 15.5833 2.03333 15.35 1.85 15.05C1.41667 14.3 1.08333 13.5042 0.85 12.6625C0.616667 11.8208 0.5 10.9333 0.5 10C0.5 8.61667 0.7625 7.32083 1.2875 6.1125C1.8125 4.90417 2.52917 3.84583 3.4375 2.9375C4.34583 2.02917 5.40833 1.3125 6.625 0.7875C7.84167 0.2625 9.13333 0 10.5 0Z" fill="black"/>
</svg>
