<svg width="20" height="20" viewBox="0 0 20 20" fill="none" xmlns="http://www.w3.org/2000/svg">
<path d="M18.4697 19.5303C18.7626 19.8232 19.2374 19.8232 19.5303 19.5303C19.8232 19.2374 19.8232 18.7626 19.5303 18.4697L18.4697 19.5303ZM8.5 15.25C4.77208 15.25 1.75 12.2279 1.75 8.5H0.25C0.25 13.0563 3.94365 16.75 8.5 16.75V15.25ZM1.75 8.5C1.75 4.77208 4.77208 1.75 8.5 1.75V0.25C3.94365 0.25 0.25 3.94365 0.25 8.5H1.75ZM8.5 1.75C12.2279 1.75 15.25 4.77208 15.25 8.5H16.75C16.75 3.94365 13.0563 0.25 8.5 0.25V1.75ZM19.5303 18.4697L14.3336 13.273L13.273 14.3336L18.4697 19.5303L19.5303 18.4697ZM15.25 8.5C15.25 10.3642 14.4953 12.0506 13.273 13.273L14.3336 14.3336C15.8258 12.8415 16.75 10.778 16.75 8.5H15.25ZM13.273 13.273C12.0506 14.4953 10.3642 15.25 8.5 15.25V16.75C10.778 16.75 12.8415 15.8258 14.3336 14.3336L13.273 13.273Z" fill="black" fill-opacity="0.6"/>
</svg>
