<svg width="28" height="28" viewBox="0 0 28 28" fill="none" xmlns="http://www.w3.org/2000/svg">
<path d="M12.1334 20.1332L21.5334 10.7332L19.6667 8.8665L12.1334 16.3998L8.33335 12.5998L6.46669 14.4665L12.1334 20.1332ZM14 27.3332C12.1556 27.3332 10.4222 26.9832 8.80002 26.2832C7.1778 25.5832 5.76669 24.6332 4.56669 23.4332C3.36669 22.2332 2.41669 20.8221 1.71669 19.1998C1.01669 17.5776 0.666687 15.8443 0.666687 13.9998C0.666687 12.1554 1.01669 10.4221 1.71669 8.79984C2.41669 7.17761 3.36669 5.7665 4.56669 4.5665C5.76669 3.3665 7.1778 2.4165 8.80002 1.7165C10.4222 1.0165 12.1556 0.666504 14 0.666504C15.8445 0.666504 17.5778 1.0165 19.2 1.7165C20.8222 2.4165 22.2334 3.3665 23.4334 4.5665C24.6334 5.7665 25.5834 7.17761 26.2834 8.79984C26.9834 10.4221 27.3334 12.1554 27.3334 13.9998C27.3334 15.8443 26.9834 17.5776 26.2834 19.1998C25.5834 20.8221 24.6334 22.2332 23.4334 23.4332C22.2334 24.6332 20.8222 25.5832 19.2 26.2832C17.5778 26.9832 15.8445 27.3332 14 27.3332ZM14 24.6665C16.9778 24.6665 19.5 23.6332 21.5667 21.5665C23.6334 19.4998 24.6667 16.9776 24.6667 13.9998C24.6667 11.0221 23.6334 8.49984 21.5667 6.43317C19.5 4.3665 16.9778 3.33317 14 3.33317C11.0222 3.33317 8.50002 4.3665 6.43335 6.43317C4.36669 8.49984 3.33335 11.0221 3.33335 13.9998C3.33335 16.9776 4.36669 19.4998 6.43335 21.5665C8.50002 23.6332 11.0222 24.6665 14 24.6665Z" fill="#4ADE80"/>
</svg>
